<svg id="Camada_3" data-name="Camada 3" xmlns="http://www.w3.org/2000/svg" xmlns:xlink="http://www.w3.org/1999/xlink" viewBox="0 0 800 800"><defs><style>.cls-1{fill:#8c451c;}.cls-2{fill:url(#Gradiente_sem_nome_64);}.cls-3{fill:url(#Gradiente_sem_nome_64-2);}.cls-4{fill:#d8d8d8;}</style><linearGradient id="Gradiente_sem_nome_64" x1="211.86" y1="59.71" x2="211.86" y2="217" gradientUnits="userSpaceOnUse"><stop offset="0" stop-color="#8c451c"/><stop offset="0.09" stop-color="#985934"/><stop offset="0.27" stop-color="#b88c73"/><stop offset="0.54" stop-color="#eaded6"/><stop offset="0.64" stop-color="#fff"/></linearGradient><linearGradient id="Gradiente_sem_nome_64-2" x1="556.42" y1="59.37" x2="556.42" y2="214.41" xlink:href="#Gradiente_sem_nome_64"/></defs><path class="cls-1" d="M419.32,492.05l-4.56,14.18a38,38,0,0,1-3.34,6.16,22.61,22.61,0,0,1-.94,7.16,24.21,24.21,0,0,1-43.39,7.13,23.28,23.28,0,0,1-2.91-5.76s0,0,0,0a23.62,23.62,0,0,1-1.2-10.1c-.12-.17-.26-.34-.37-.51-.86-1.2-1.63-2.4-2.37-3.62,1.28-.49,2.59-1,3.91-1.37,13.09-4.37,26.27-6.54,39.93-9.5C409.08,494.7,414.16,493.51,419.32,492.05Z"/><path class="cls-1" d="M538.39,359.63c.83-2.68,1.63-5.33,2.4-7.93,2.16,2.69,3.13,4.77,2.11,6.37C542.13,359.29,540.53,359.72,538.39,359.63Z"/><path class="cls-1" d="M641.65,368.36C484.42,490.68,437.29,527.42,434.41,529.79A106.91,106.91,0,0,1,422.63,539a8.1,8.1,0,0,0-.94.68c-5.16,3.65-19.57,12.81-39.14,11.84A54.13,54.13,0,0,1,355.08,543a57.78,57.78,0,0,1-12.35-11l-11.27-9.5a107.24,107.24,0,0,1,19.89-12.1c.62,2.09,1.28,4.25,1.94,6.51a42.17,42.17,0,0,0,7,13.72,24.63,24.63,0,0,0,9.13,8c2.71,1.32,5.85,2.09,11.47,2,7.84-.09,20.25-.17,30.32-8.7,4.08-3.42,6-6.7,9.64-13.12,6.14-10.73,8.79-20.06,11-30.75a145.78,145.78,0,0,0,35.85-19.17c21.57-15.61,36.8-34.6,48-54.46q3.85-6.84,7.13-13.78a279.1,279.1,0,0,0,12-29.86,31.33,31.33,0,0,0,3.93.28c8.19,0,12.15-4.3,13.81-6.87,6.07-9.56-.86-17.94-8.1-25.39,4.45-16.09,8.18-30.15,13-40.33l0,0,21.66-16.92C600.86,283.1,626.16,320.7,641.65,368.36Z"/><path class="cls-1" d="M655.89,444.24c-.6,52.32-23.51,117.47-73.51,151.79-63.5,43.58-129,8.81-151.3,49.23l-11.76-25.93-35.48,26.22v-32l-51.41,32-10.72-32-34,17.8c-2-29.84,4.7-70,30.43-97,2.63-2.77,5-4.88,6.65-6.31l11.93,10a65.37,65.37,0,0,0,13.69,12.1,63,63,0,0,0,31.75,9.93c1.11,0,2.22.05,3.31.05a72.15,72.15,0,0,0,41.19-13.46l.4-.34.34-.23a111.39,111.39,0,0,0,12.32-9.56l.12-.11c3.42-2.8,72.14-56.31,204.55-159.26A191.76,191.76,0,0,1,655.89,444.24Z"/><path class="cls-1" d="M410.48,519.55a24.21,24.21,0,0,1-43.39,7.13,23.28,23.28,0,0,1-2.91-5.76,38.18,38.18,0,0,0,2.88,4.45,17.15,17.15,0,0,0,6.05,5.53c1.29.6,3.05,1.17,7.28,1.17h.42c7.25-.06,17.18-.14,24.91-6.67A21.35,21.35,0,0,0,410.48,519.55Z"/><path class="cls-1" d="M505.7,357.84a6.55,6.55,0,0,0-.66.63,10.22,10.22,0,0,0-.85,1.14l-.4-1.89Z"/><path class="cls-1" d="M357.82,502.26A71.49,71.49,0,0,1,351.6,482c1,3.4,2.17,7.16,3.46,11.3C355.91,496.07,356.82,499.07,357.82,502.26Z"/><path class="cls-1" d="M711.08,314.39q-37.86,29.44-69.43,54C484.42,490.68,437.29,527.42,434.41,529.79A106.91,106.91,0,0,1,422.63,539a8.1,8.1,0,0,0-.94.68c-5.16,3.65-19.57,12.81-39.14,11.84A54.13,54.13,0,0,1,355.08,543a57.78,57.78,0,0,1-12.35-11l-11.27-9.5L88.31,317.33a18.51,18.51,0,0,1,1.63-29.52l14.49-9.7A18.47,18.47,0,0,1,114.7,275a18.28,18.28,0,0,1,12.21,4.62s0,0,.06,0a140.7,140.7,0,0,0,16.37-51.32q42.48,44.11,73.77,78.19a211.91,211.91,0,0,0-30-50.63,248.88,248.88,0,0,0-50.06-47.61,363.84,363.84,0,0,1,61.36,20.05,387.26,387.26,0,0,1,46.27,23.8c.74,5.27,1.82,10,2.82,14.4,2.51,11.1,4.34,19.08-.25,30.67-6,15.29-19.2,25.84-28.81,33.54-8.59,6.88-18.32,14.66-12.7,25.39,1.17,2.22,4.79,7.42,13.24,7.42,3.56,0,7.36-.89,11.72-1.92s9.41-2.19,13.52-2.19c1.63,0,3.82.2,5,1.11,3.13,2.57,1.91,14.18,1.11,21.88-1.48,14.29-3.17,30.49,9.38,39.62a22.63,22.63,0,0,0,13.61,4.31,57.14,57.14,0,0,0,11-1.48A69.8,69.8,0,0,1,299.29,423a58.43,58.43,0,0,1,10.52,1c8.73,1.63,15,2.77,19.74,6.7,7,5.82,7.91,15.78,8.76,31.55.49,8.76,5.19,22.25,13,48.15.62,2.09,1.28,4.25,1.94,6.51a42.17,42.17,0,0,0,7,13.72,24.63,24.63,0,0,0,9.13,8c2.71,1.32,5.85,2.09,11.47,2,7.84-.09,20.25-.17,30.32-8.7,4.08-3.42,6-6.7,9.64-13.12,6.14-10.73,8.79-20.06,11-30.75,0-.37.14-.77.22-1.17,2.14-10.87,4.14-21.11,5-35.63.28-4.45.37-8,.45-10.9.17-7,.32-8.27,1.54-10.5.69-1.22,3.54-5.56,11.44-9.29a44.18,44.18,0,0,1,19.51-4.2,109.13,109.13,0,0,1,16.8,1.69,88.06,88.06,0,0,0,13.35,1.39c6.39,0,11.58-1.68,15.52-5q3.85-6.84,7.13-13.78c.8-7.9-2.31-16.31-5-23.56a91.3,91.3,0,0,1-3.31-10.18,71.7,71.7,0,0,1,10.84,2,91.14,91.14,0,0,0,9.42,1.88,31.33,31.33,0,0,0,3.93.28c8.19,0,12.15-4.3,13.81-6.87,6.07-9.56-.86-17.94-8.1-25.39l-2-2.05c-8.07-8.19-19.14-19.43-23.53-34.66-3.34-11.58-1.43-18.77,1.51-29.64,1.25-4.62,2.65-9.81,3.68-15.86q10.7-7.7,22.45-14.55a300.36,300.36,0,0,1,51.34-23.79,184.07,184.07,0,0,1,75.14-5c-54.51,21.88-86.72,50.26-105.2,70.12a269.62,269.62,0,0,0-17.66,21.22c2.42-2.08,4.85-4.14,7.25-6.1l0,0,21.66-16.92A505.55,505.55,0,0,1,673,227a37.38,37.38,0,0,0-5.16,56.14l4.62-3.68a18.4,18.4,0,0,1,18-2.88q8.73,3.21,15.75,5.82A18.5,18.5,0,0,1,711.08,314.39Z"/><path class="cls-1" d="M706.21,282.42q-7-2.61-15.75-5.82a18.4,18.4,0,0,0-18,2.88l-4.62,3.68A37.38,37.38,0,0,1,673,227a505.55,505.55,0,0,0-93.93,54.51l-21.66,16.92,0,0c-2.4,2-4.83,4-7.25,6.1a269.62,269.62,0,0,1,17.66-21.22c18.48-19.86,50.69-48.24,105.2-70.12a184.07,184.07,0,0,0-75.14,5,300.36,300.36,0,0,0-51.34,23.79q-11.73,6.85-22.45,14.55c-1,6-2.43,11.24-3.68,15.86-2.94,10.87-4.85,18.06-1.51,29.64,4.39,15.23,15.46,26.47,23.53,34.66l2,2.05c7.24,7.45,14.17,15.83,8.1,25.39-1.66,2.57-5.62,6.87-13.81,6.87a31.33,31.33,0,0,1-3.93-.28,91.14,91.14,0,0,1-9.42-1.88,71.7,71.7,0,0,0-10.84-2,91.3,91.3,0,0,0,3.31,10.18c2.68,7.25,5.79,15.66,5,23.56a20.35,20.35,0,0,1-4.68,11.3,18,18,0,0,1-2.45,2.48c-3.94,3.34-9.13,5-15.52,5a88.06,88.06,0,0,1-13.35-1.39,109.13,109.13,0,0,0-16.8-1.69,44.18,44.18,0,0,0-19.51,4.2c-7.9,3.73-10.75,8.07-11.44,9.29-1.22,2.23-1.37,3.51-1.54,10.5-.08,2.88-.17,6.45-.45,10.9-.89,14.52-2.89,24.76-5,35.63-.08.4-.17.8-.22,1.17-2.2,10.69-4.85,20-11,30.75-3.68,6.42-5.56,9.7-9.64,13.12-10.07,8.53-22.48,8.61-30.32,8.7-5.62.06-8.76-.71-11.47-2a24.63,24.63,0,0,1-9.13-8,42.17,42.17,0,0,1-7-13.72c-.66-2.26-1.32-4.42-1.94-6.51-7.85-25.9-12.55-39.39-13-48.15-.85-15.77-1.77-25.73-8.76-31.55-4.73-3.93-11-5.07-19.74-6.7a58.43,58.43,0,0,0-10.52-1,69.8,69.8,0,0,0-14.92,1.86,57.14,57.14,0,0,1-11,1.48A22.63,22.63,0,0,1,259.72,422c-12.55-9.13-10.86-25.33-9.38-39.62.8-7.7,2-19.31-1.11-21.88-1.15-.91-3.34-1.11-5-1.11-4.11,0-9.1,1.17-13.52,2.19s-8.16,1.92-11.72,1.92c-8.45,0-12.07-5.2-13.24-7.42-5.62-10.73,4.11-18.51,12.7-25.39,9.61-7.7,22.76-18.25,28.81-33.54,4.59-11.59,2.76-19.57.25-30.67-1-4.39-2.08-9.13-2.82-14.4a387.26,387.26,0,0,0-46.27-23.8,363.84,363.84,0,0,0-61.36-20.05,248.88,248.88,0,0,1,50.06,47.61,211.91,211.91,0,0,1,30,50.63q-31.29-34.05-73.77-78.19A140.7,140.7,0,0,1,127,279.59s0,0-.06,0A18.28,18.28,0,0,0,114.7,275a18.47,18.47,0,0,0-10.27,3.11l-14.49,9.7a18.51,18.51,0,0,0-1.63,29.52L331.46,522.46l11.27,9.5a57.78,57.78,0,0,0,12.35,11,54.13,54.13,0,0,0,27.47,8.53c19.57,1,34-8.19,39.14-11.84a8.1,8.1,0,0,1,.94-.68,106.91,106.91,0,0,0,11.78-9.19c2.88-2.37,50-39.11,207.24-161.43q31.67-24.6,69.43-54A18.5,18.5,0,0,0,706.21,282.42Z"/><path class="cls-2" d="M273.18,187.39A106.74,106.74,0,0,0,258.54,217c-2.54-3.59-4.65-8.41-6.87-14.29-5-13.2-10.5-31.77-22.22-53.68A231.06,231.06,0,0,0,177,83.45c-15.09-13.24-26.19-20.14-26.42-23.74,18.55,8.19,57.91,20.06,88.75,57.4C259.08,141.07,267.73,166.29,273.18,187.39Z"/><path class="cls-1" d="M411.05,508.79c-.14-.68-.28-1.34-.46-2a24.68,24.68,0,0,0-2.36-5.68c-.37-.63-.77-1.25-1.2-1.85,0,0,0-.06-.06-.09a18.08,18.08,0,0,0-1.17-1.48,20.83,20.83,0,0,0-1.74-1.91,23.17,23.17,0,0,0-3.73-3c-.32-.2-.6-.4-.92-.57a22.62,22.62,0,0,0-4.16-2c-.37-.14-.74-.25-1.11-.37a17.3,17.3,0,0,0-2.46-.6c-.71-.14-1.42-.25-2.14-.34-6.64-.66-14,1.43-20.62,7.39-.46.6-.89,1.2-1.28,1.79s-.77,1.23-1.12,1.83a19.8,19.8,0,0,0-1,1.8l-.6,1.28a2.58,2.58,0,0,1-.08.26c-.14.28-.23.57-.34.85s-.29.75-.4,1.12-.29.94-.4,1.39a12,12,0,0,0-.35,1.37v0c-.08.43-.17.86-.22,1.26s-.15,1-.2,1.45c4.93,6.79,9.9,10.53,13.8,12.58a24.36,24.36,0,0,0,7.13,2.6,26,26,0,0,0,14.58-1.77s0,0,.06,0c1.85-.8,7.24-3.42,12.89-11.78A24.94,24.94,0,0,0,411.05,508.79Z"/><path class="cls-1" d="M627.59,50.25c-2.88-13.1-76.45-21.91-135,13.26-8.33,5-50.46,30.3-64.44,70.6a128.59,128.59,0,0,0-87.94,1.51c-13.53-41.16-56.63-66.92-65-72C216.48,28.57,142.91,37.5,140.06,50.59c-.71,3.34,3.34,5.93,10.5,9.13,18.54,8.18,57.9,20,88.74,57.39,19.8,24,28.44,49.18,33.89,70.29A107,107,0,0,0,258.55,217a77.39,77.39,0,0,0-3.33,20.16,94,94,0,0,0,2.56,23c3,13.5,6.62,24.74.12,41.14-11.84,29.92-45.22,43.36-42,49.46,2.91,5.56,28-9.38,40.56.89,15.52,12.69-4.7,50.4,10,61.1,9,6.56,19.91-4.74,45.44,0,9.55,1.74,18,3.31,25,9.16C352.63,435,347.72,458.33,351.6,482a71.49,71.49,0,0,0,6.22,20.28c.72,1.49,1.51,2.94,2.4,4.4.74,1.22,1.51,2.42,2.37,3.62.11.17.25.34.37.51.05-.48.11-1,.2-1.45s.14-.83.22-1.26v0a12,12,0,0,1,.35-1.37c.11-.45.25-.94.4-1.39s.25-.75.4-1.12.2-.57.34-.85a2.58,2.58,0,0,0,.08-.26l.6-1.28a19.8,19.8,0,0,1,1-1.8c.35-.6.72-1.23,1.12-1.83s.82-1.19,1.28-1.79c6.67-6,14-8.05,20.62-7.39.72.09,1.43.2,2.14.34a17.3,17.3,0,0,1,2.46.6c.37.12.74.23,1.11.37a22.62,22.62,0,0,1,4.16,2c.32.17.6.37.92.57a23.17,23.17,0,0,1,3.73,3,20.83,20.83,0,0,1,1.74,1.91,18.08,18.08,0,0,1,1.17,1.48s0,.06.06.09c.43.6.83,1.22,1.2,1.85a24.68,24.68,0,0,1,2.36,5.68,20.4,20.4,0,0,1,.46,2,24.94,24.94,0,0,1,.37,3.6,38,38,0,0,0,3.34-6.16,79,79,0,0,0,4.56-14.18c.6-2.57,1.12-5.05,1.54-7.27,2.11-10.81,4-20.4,4.85-34.23.94-15.12-.31-19.52,3.4-26.22,1.05-1.88,5.13-8.64,16.51-14.06,28.93-13.78,55,4.93,63.76-5.59s-11.7-34.52-5.19-45.07a10.22,10.22,0,0,1,.85-1.14,6.55,6.55,0,0,1,.66-.63c7-6.14,24.13,1.62,32.69,1.79,2.14.09,3.74-.34,4.51-1.56,1-1.6.05-3.68-2.11-6.37-6.94-8.52-26.08-23-32.87-46.43-4.47-15.58-1.22-25.68,2.06-38v0c2.28-8.62,4.59-18.31,4.19-31.78a84.26,84.26,0,0,0-3.31-21.08,111.32,111.32,0,0,0-15.12-31.32c5.48-20.22,14.21-43.76,32.69-66.18,30.78-37.4,70.15-49.32,88.69-57.54C624.28,56.21,628.33,53.58,627.59,50.25ZM350,339.78a12.44,12.44,0,0,1-6.59,5.48c-11.18,3.48-29.07-13.27-33-31.58a43.65,43.65,0,0,1-.57-14c1.8-15.88,11.24-30.26,20.48-30.63,10.84-.43,20.31,18.54,23.37,31.58C356.68,313.51,355.77,330.82,350,339.78Zm110.51-26.1a39.62,39.62,0,0,1-1.63,5.59,49.4,49.4,0,0,1-15.49,21.25c-5.48,4.17-11.24,6.16-15.86,4.74-11.47-3.57-14.21-27.87-10.3-44.64,3.05-13,12.53-32,23.37-31.58C452.5,269.49,464.79,293.46,460.49,313.68Z"/><path class="cls-3" d="M617.11,59.37c-.17,3.6-11.27,10.5-26.33,23.74a231.7,231.7,0,0,0-52.49,65.72c-10.69,20-16.17,37.31-20.82,50.23a97.66,97.66,0,0,1-6.62,15.35,111.32,111.32,0,0,0-15.12-31.32c5.48-20.23,14.21-43.76,32.69-66.18C559.2,79.51,598.57,67.59,617.11,59.37Z"/><path d="M411.42,512.39a22.61,22.61,0,0,1-.94,7.16,24.21,24.21,0,0,1-43.39,7.13,23.28,23.28,0,0,1-2.91-5.76s0,0,0,0a23.62,23.62,0,0,1-1.2-10.1c.05-.48.11-1,.2-1.45s.14-.83.22-1.26v0a12,12,0,0,1,.35-1.37c.11-.45.25-.94.4-1.39s.25-.75.4-1.12.2-.57.34-.85a2.58,2.58,0,0,0,.08-.26l.6-1.28a19.8,19.8,0,0,1,1-1.8c.35-.6.72-1.23,1.12-1.83s.82-1.19,1.28-1.79c6.67-6,14-8.05,20.62-7.39.72.09,1.43.2,2.14.34a17.3,17.3,0,0,1,2.46.6c.37.12.74.23,1.11.37a22.62,22.62,0,0,1,4.16,2c.32.17.6.37.92.57a23.17,23.17,0,0,1,3.73,3,20.83,20.83,0,0,1,1.74,1.91,18.08,18.08,0,0,1,1.17,1.48s0,.06.06.09c.43.6.83,1.22,1.2,1.85a24.68,24.68,0,0,1,2.36,5.68c.18.65.32,1.31.46,2A24.94,24.94,0,0,1,411.42,512.39Z"/><path class="cls-4" d="M493.52,760.62c-1.86,4.88-178.14-16.86-202.45-107.77a112.57,112.57,0,0,1-3.39-21.54l34-17.8,10.72,32,51.41-32v32l35.48-26.22,11.76,25.93c-.06.09-.12.2-.17.29-12.84,23.7-2.2,56.51,8.72,74.31C459.37,752,494.37,758.42,493.52,760.62Z"/></svg>