<svg id="Camada_3" data-name="Camada 3" xmlns="http://www.w3.org/2000/svg" xmlns:xlink="http://www.w3.org/1999/xlink" viewBox="0 0 800 800"><defs><style>.cls-1{fill:#774329;}.cls-2{fill:#fff;}.cls-3{fill:url(#Gradiente_sem_nome_65);}.cls-4{fill:url(#Gradiente_sem_nome_2);}.cls-5{fill:#683115;}</style><linearGradient id="Gradiente_sem_nome_65" x1="111.4" y1="721.45" x2="111.4" y2="566.03" gradientTransform="matrix(1, 0, 0, -1, 102.36, 781.06)" gradientUnits="userSpaceOnUse"><stop offset="0" stop-color="#fff"/><stop offset="0.09" stop-color="#f3ebe7"/><stop offset="0.27" stop-color="#d3b8a8"/><stop offset="0.53" stop-color="#a16645"/><stop offset="0.63" stop-color="#8c451c"/></linearGradient><linearGradient id="Gradiente_sem_nome_2" x1="452.02" y1="721.73" x2="452.02" y2="568.68" gradientTransform="matrix(1, 0, 0, -1, 102.36, 781.06)" gradientUnits="userSpaceOnUse"><stop offset="0" stop-color="#fff"/><stop offset="0.09" stop-color="#f3ebe7"/><stop offset="0.27" stop-color="#d3b8a8"/><stop offset="0.54" stop-color="#a16645"/><stop offset="0.64" stop-color="#8c451c"/></linearGradient></defs><path class="cls-1" d="M253,461.62l.35.29a4.91,4.91,0,0,0-.35.41Z"/><path class="cls-1" d="M268,461.94v.38l-.19-.24Z"/><path class="cls-2" d="M702.55,279.51q-6.93-2.58-15.56-5.75a18.18,18.18,0,0,0-17.75,2.84l-4.57,3.64a36.94,36.94,0,0,1,5.1-55.47,493.27,493.27,0,0,0-121.39,76.64,267.47,267.47,0,0,1,17.44-21c18.27-19.62,50.09-47.66,103.95-69.28a181.81,181.81,0,0,0-74.24,5,296.31,296.31,0,0,0-50.73,23.51c-7.72,4.51-15.14,9.3-22.18,14.37A160.55,160.55,0,0,1,519,269.67c-2.9,10.74-4.79,17.84-1.49,29.29,4.34,15.05,15.27,26.15,23.25,34.24,7.75,7.86,16.54,16.8,10,27.11-1.64,2.54-5.55,6.8-13.64,6.8-4.09,0-8.52-1.05-13.19-2.14a71.27,71.27,0,0,0-10.71-2,86.47,86.47,0,0,0,3.26,10.06c4,10.74,8.91,24.07.31,34.45-4,4.93-10,7.41-17.75,7.41a87,87,0,0,1-13.19-1.38,108,108,0,0,0-16.6-1.66A43.73,43.73,0,0,0,449.93,416c-7.81,3.69-10.63,8-11.3,9.19-1.22,2.2-1.36,3.46-1.53,10.37-.08,2.85-.17,6.37-.45,10.77-.87,14.34-2.84,24.46-5,35.2-2.17,11-4.78,20.55-11.07,31.54-3.64,6.34-5.49,9.58-9.51,13-10,8.4-22.23,8.51-30,8.58-5.54.05-8.64-.71-11.32-2a24.56,24.56,0,0,1-9-7.92,42.07,42.07,0,0,1-7-13.57c-8.87-29.83-14.28-44.64-14.79-54-.85-15.59-1.75-25.42-8.66-31.17-4.67-3.89-10.87-5-19.5-6.63a58,58,0,0,0-10.4-1,69.51,69.51,0,0,0-14.74,1.83,56.46,56.46,0,0,1-10.91,1.46,22.32,22.32,0,0,1-13.44-4.25c-12.4-9-10.74-25-9.28-39.15.79-7.61,2-19.08-1.09-21.62-1.13-.9-3.3-1.1-4.91-1.1-4.06,0-9,1.16-13.36,2.17s-8.06,1.89-11.58,1.89c-8.35,0-11.93-5.13-13.08-7.33-5.55-10.6,4.06-18.29,12.54-25.08,9.5-7.61,22.49-18,28.47-33.15,4.54-11.44,2.73-19.33.25-30.3-1-4.34-2.06-9-2.79-14.23A383.06,383.06,0,0,0,200.86,226a360,360,0,0,0-60.63-19.81,245.65,245.65,0,0,1,49.46,47,209.47,209.47,0,0,1,29.6,50Q188.39,269.61,146.4,226a138.9,138.9,0,0,1-16.18,50.71s0,0-.05,0a18.25,18.25,0,0,0-22.21-1.5l-14.32,9.59A18.29,18.29,0,0,0,92,314L343.42,526.07A56.9,56.9,0,0,0,355.62,537a53.53,53.53,0,0,0,27.14,8.43c19.34,1,33.57-8.09,38.67-11.7a7.88,7.88,0,0,1,.93-.67A107.58,107.58,0,0,0,434,523.93c3.24-2.65,62.69-49,273.37-212.83A18.28,18.28,0,0,0,702.55,279.51Z"/><path class="cls-3" d="M274.36,185.88c-6.48,9.3-11.55,19.16-14.37,29.31-2.54-3.66-4.51-8.46-6.77-14.09-5.07-13-10.42-31.29-22-53-16.35-30.72-36.36-51-51.86-64.83-14.94-13.24-25.93-20-26.21-23.67,18.32,8.17,57.21,19.73,87.65,56.65C260.55,139.94,269,165,274.36,185.88Z"/><path class="cls-4" d="M614.27,59.33c-.28,3.66-11,10.42-25.93,23.39a226.24,226.24,0,0,0-51.86,64.83c-10.71,19.72-16.06,36.92-20.57,49.6-2.26,6.2-4.23,11.28-6.48,15.22-2.54-9.3-7.33-19.73-14.94-31,5.35-20,14.09-43.13,32.41-65.39C557.06,79.34,596,67.5,614.27,59.33Z"/><path class="cls-2" d="M369.29,490.9a27.89,27.89,0,0,0-5.89,14.26c4.88,6.71,9.78,10.4,13.64,12.43a24,24,0,0,0,7,2.56,25.73,25.73,0,0,0,14.4-1.74s0,0,.06,0c1.83-.79,7.16-3.39,12.74-11.64C410.75,487.82,387.67,474.46,369.29,490.9Z"/><path class="cls-2" d="M624.87,50.11C622,37.17,549.34,28.46,491.44,63.22c-8.23,4.93-49.86,29.93-63.67,69.75a127,127,0,0,0-86.89,1.5c-13.36-40.67-55.95-66.12-64.26-71.11C218.67,28.69,146,37.51,143.16,50.45c-.7,3.3,3.3,5.86,10.37,9,18.32,8.09,57.22,19.81,87.69,56.71,19.56,23.67,28.1,48.59,33.48,69.44a105.72,105.72,0,0,0-14.46,29.26,76.42,76.42,0,0,0-3.3,19.93,93,93,0,0,0,2.54,22.74c2.93,13.33,6.54,24.44.11,40.64-11.69,29.57-44.67,42.85-41.51,48.88,2.87,5.49,27.67-9.28,40.08.87,15.33,12.54-4.65,49.8,9.86,60.37,8.91,6.49,19.67-4.67,44.9,0,9.44,1.72,17.76,3.27,24.69,9,21.9,18.24,3.44,56.29,25.42,87.32.12.17.26.34.37.51a27.89,27.89,0,0,1,5.89-14.26c18.38-16.44,41.46-3.08,42,15.84,5.38-8,7.75-19.23,9.32-27.29,2.09-10.68,3.95-20.15,4.8-33.82.93-14.94-.31-19.28,3.35-25.9,1-1.86,5.07-8.54,16.32-13.9,28.58-13.61,54.37,4.88,63-5.52,8.83-10.65-13.1-35.94-4.28-45.66,8.09-8.91,33.46,5.81,37.4-.39,4.2-6.6-25.76-21.74-34.55-52.18-4.43-15.38-1.22-25.36,2-37.51v0c2.25-8.51,4.53-18.09,4.14-31.4a83.57,83.57,0,0,0-3.27-20.83,110,110,0,0,0-14.94-30.94c5.41-20,14-43.24,32.3-65.39C557.31,79,596.21,67.25,614.53,59.13,621.6,56,625.61,53.41,624.87,50.11ZM344.06,341.6c-11,3.44-28.72-13.11-32.58-31.2a42.89,42.89,0,0,1-.56-13.84c1.77-15.7,11.1-29.9,20.24-30.27,10.71-.42,20.06,18.32,23.08,31.2s2.06,29.85-3.66,38.7A12.25,12.25,0,0,1,344.06,341.6Zm98.79-4.68c-5.41,4.12-11.1,6.09-15.67,4.68-11.33-3.52-14-27.54-10.17-44.11,3-12.88,12.37-31.62,23.08-31.2,11.78.45,23.93,24.13,19.67,44.11a38.6,38.6,0,0,1-1.6,5.52A48.82,48.82,0,0,1,442.85,336.92Z"/><path d="M411.29,506.74a24,24,0,0,1-43.8,14.12,23.4,23.4,0,0,1-4.09-15.7,27.89,27.89,0,0,1,5.89-14.26C387.67,474.46,410.75,487.82,411.29,506.74Z"/><path class="cls-2" d="M656,448c-.59,51.69-23.22,116.06-72.63,150-62.74,43.06-127.48,8.71-149.5,48.65L422.29,621l-35.06,25.9V615.28l-50.79,31.65-10.6-31.65-33.62,17.58c-2-29.48,4.65-69.19,30.07-95.85a86.26,86.26,0,0,1,6.57-6.23l11.78,9.92a64.87,64.87,0,0,0,13.53,11.95,62.17,62.17,0,0,0,31.37,9.81c1.1,0,2.2,0,3.27,0a71.26,71.26,0,0,0,40.7-13.3l.39-.34.34-.22a109.79,109.79,0,0,0,12.18-9.45l.11-.11c3.38-2.76,71.28-55.64,202.11-157.36A189.29,189.29,0,0,1,656,448Z"/><path class="cls-5" d="M495.6,760.63c-1.83,4.82-176-16.66-200-106.49a110.76,110.76,0,0,1-3.35-21.28l33.62-17.58,10.6,31.65,50.79-31.65v31.65L422.29,621l11.61,25.62-.16.28c-12.69,23.42-2.18,55.83,8.62,73.42C461.86,752.09,496.45,758.46,495.6,760.63Z"/></svg>